<?xml version="1.0" encoding="UTF-8"?>
<svg xmlns="http://www.w3.org/2000/svg" xmlns:xlink="http://www.w3.org/1999/xlink" width="1000px" height="1000px" viewBox="0 0 1000 1000" version="1.1">
<g id="surface1">
<rect x="0" y="0" width="1000" height="1000" style="fill:rgb(96.078431%,90.196078%,87.45098%);fill-opacity:1;stroke:none;"/>
<path style="fill:none;stroke-width:12;stroke-linecap:butt;stroke-linejoin:miter;stroke:rgb(92.941176%,11.764706%,47.45098%);stroke-opacity:1;stroke-miterlimit:4;" d="M -0.000418625 5.998765 L 274.556222 5.998765 " transform="matrix(2,0,0,2,226.575056,664.314969)"/>
<path style="fill:none;stroke-width:12;stroke-linecap:butt;stroke-linejoin:miter;stroke:rgb(5.098039%,9.803922%,31.372549%);stroke-opacity:1;stroke-miterlimit:4;" d="M -0.000418625 5.999191 L 273.425363 5.999191 " transform="matrix(2,0,0,2,226.575056,279.126617)"/>
<path style="fill:none;stroke-width:12;stroke-linecap:butt;stroke-linejoin:miter;stroke:rgb(5.098039%,9.803922%,31.372549%);stroke-opacity:1;stroke-miterlimit:4;" d="M 0.00059259 5.99872 L 162.762305 6.000117 " transform="matrix(-0.00961709,-1.999976,1.999976,-0.00961709,228.127709,606.828407)"/>
<path style=" stroke:none;fill-rule:nonzero;fill:rgb(92.941176%,11.764706%,47.45098%);fill-opacity:1;" d="M 349.828125 524.714844 L 371.304688 524.714844 L 390.453125 460.359375 L 409.691406 524.328125 L 431.078125 524.328125 L 461.253906 426.765625 L 435.859375 426.765625 L 419.066406 487.703125 L 400.703125 426.765625 L 380.296875 426.765625 L 361.835938 487.902344 L 345.234375 426.765625 L 319.847656 426.765625 Z M 349.828125 524.714844 "/>
<path style=" stroke:none;fill-rule:nonzero;fill:rgb(92.941176%,11.764706%,47.45098%);fill-opacity:1;" d="M 516.8125 526.277344 C 533.21875 526.277344 546.210938 520.515625 556.855469 508.703125 L 540.449219 494.351562 C 533.617188 501.964844 525.804688 504.703125 517.011719 504.703125 C 501.679688 504.703125 494.648438 496.109375 492.59375 483.320312 L 559.59375 483.320312 C 560.074219 481.945312 560.46875 477.945312 560.46875 473.945312 C 560.46875 452.164062 549.4375 424.726562 515.25 424.726562 C 482.25 424.726562 467.40625 450.507812 467.40625 475.890625 C 467.40625 502.164062 483.21875 526.277344 516.8125 526.277344 Z M 492.59375 466.132812 C 494.84375 453.921875 501 444.734375 515.0625 444.734375 C 527.460938 444.734375 535.46875 452.164062 537.03125 466.132812 Z M 492.59375 466.132812 "/>
<path style=" stroke:none;fill-rule:nonzero;fill:rgb(92.941176%,11.764706%,47.45098%);fill-opacity:1;" d="M 633.023438 526.277344 C 660.074219 526.277344 674.824219 502.546875 674.824219 475.507812 C 674.824219 448.351562 660.074219 424.726562 632.636719 424.726562 C 622.191406 424.726562 612.035156 428.140625 605.199219 436.539062 L 605.199219 386.339844 L 580.585938 386.339844 L 580.585938 524.328125 L 605.199219 524.328125 L 605.199219 514.570312 C 612.035156 522.964844 622.867188 526.277344 633.023438 526.277344 Z M 627.074219 504.308594 C 610.667969 504.308594 603.042969 491.914062 603.042969 475.507812 C 603.042969 459.101562 610.667969 446.296875 627.074219 446.296875 C 643.480469 446.296875 650.804688 459.289062 650.804688 475.507812 C 650.804688 491.714844 643.480469 504.308594 627.074219 504.308594 Z M 627.074219 504.308594 "/>
<path style=" stroke:none;fill-rule:nonzero;fill:rgb(5.098039%,9.803922%,31.372549%);fill-opacity:1;" d="M 458.390625 573.339844 L 454.820312 573.339844 L 435.777344 602.820312 L 416.695312 573.339844 L 413.121094 573.339844 L 413.121094 605.328125 L 415.890625 605.328125 L 415.890625 577.070312 L 434.183594 605.277344 L 434.121094 605.328125 L 437.382812 605.328125 L 437.382812 605.277344 L 455.609375 577.070312 L 455.609375 605.328125 L 458.390625 605.328125 Z M 458.390625 573.339844 "/>
<path style=" stroke:none;fill-rule:nonzero;fill:rgb(5.098039%,9.803922%,31.372549%);fill-opacity:1;" d="M 490.640625 605.859375 C 504.710938 605.859375 510.953125 599.890625 510.953125 590.296875 L 510.953125 587.945312 C 510.953125 578.351562 504.710938 572.808594 490.640625 572.808594 C 476.554688 572.808594 470.316406 578.558594 470.316406 588.164062 L 470.316406 590.507812 C 470.316406 600.101562 476.554688 605.859375 490.640625 605.859375 Z M 490.640625 603.195312 C 478.640625 603.195312 473.203125 598.828125 473.203125 590.507812 L 473.203125 588.164062 C 473.203125 579.839844 478.640625 575.476562 490.640625 575.476562 C 502.628906 575.476562 508.078125 579.839844 508.078125 588.164062 L 508.078125 590.507812 C 508.078125 598.828125 502.628906 603.195312 490.640625 603.195312 Z M 490.640625 603.195312 "/>
<path style=" stroke:none;fill-rule:nonzero;fill:rgb(5.098039%,9.803922%,31.372549%);fill-opacity:1;" d="M 551.734375 573.339844 L 517.820312 573.339844 L 517.820312 575.789062 L 546.777344 575.789062 L 517.820312 603.359375 L 517.820312 605.328125 L 551.734375 605.328125 L 551.734375 602.882812 L 522.359375 602.882812 L 551.734375 574.933594 Z M 551.734375 573.339844 "/>
<path style=" stroke:none;fill-rule:nonzero;fill:rgb(5.098039%,9.803922%,31.372549%);fill-opacity:1;" d="M 590.011719 605.328125 L 593.15625 605.328125 L 575.5625 573.339844 L 572.3125 573.339844 L 554.71875 605.328125 L 557.867188 605.328125 L 561.324219 599.039062 L 586.542969 599.039062 Z M 562.773438 596.371094 L 573.960938 576.109375 L 585.105469 596.371094 Z M 562.773438 596.371094 "/>
<path style="fill:none;stroke-width:12;stroke-linecap:butt;stroke-linejoin:miter;stroke:rgb(5.098039%,9.803922%,31.372549%);stroke-opacity:1;stroke-miterlimit:4;" d="M -0.00166692 6.001322 L 162.793249 6.002323 " transform="matrix(-0.0138814,-1.999952,1.999952,-0.0138814,751.673403,606.912004)"/>
</g>
</svg>
