<svg xmlns="http://www.w3.org/2000/svg" version="1.1" xmlns:xlink="http://www.w3.org/1999/xlink" xmlns:svgjs="http://svgjs.dev/svgjs" width="1500" height="1500" viewBox="0 0 1500 1500"><rect width="1500" height="1500" fill="#ffffff"></rect><g transform="matrix(0.6666666666666666,0,0,0.6666666666666666,250.55077081857695,208.77192982456154)"><svg viewBox="0 0 228 247" data-background-color="#ffffff" preserveAspectRatio="xMidYMid meet" height="1625" width="1500" xmlns="http://www.w3.org/2000/svg" xmlns:xlink="http://www.w3.org/1999/xlink"><g id="tight-bounds" transform="matrix(1,0,0,1,-0.1255757466355476,-0.09999999999999432)"><svg viewBox="0 0 228.2511479281569 247.2" height="247.2" width="228.2511479281569"><g><svg viewBox="0 0 395.52 428.35510308484555" height="247.2" width="228.2511479281569"><g transform="matrix(1,0,0,1,0,257.6500044881655)"><svg viewBox="0 0 395.52 170.70509859668005" height="170.70509859668005" width="395.52"><g id="textblocktransform"><svg viewBox="0 0 395.52 170.70509859668005" height="170.70509859668005" width="395.52" id="textblock"><g><svg viewBox="0 0 395.52 92.07017328128946" height="92.07017328128946" width="395.52"><g transform="matrix(1,0,0,1,0,0)"><svg width="395.52" viewBox="3.25 -26.613326016925 114.69333149249998 26.70093285453184" height="92.07017328128946" data-palette-color="#7a26c1"><path d="M33.6-2.2L33.6-2.2Q33.55-3.1 33.48-3.88 33.4-4.65 33.38-5.03 33.35-5.4 33.33-5.68 33.3-5.95 33.3-6.3L33.3-6.3 33.3-9.15Q33.3-9.95 33.38-11.98 33.45-14 33.43-15.4 33.4-16.8 33.15-18.05L33.15-18.05Q32.85-19.8 32.1-20.58 31.35-21.35 29.8-21.35L29.8-21.35Q26.35-21.3 22.9-17.15L22.9-17.15Q23.05-15.65 23.05-11.35L23.05-11.35Q23.05-8.2 23.2-2.55L23.2-2.55Q23.25-1.55 22.53-0.8 21.8-0.05 20.78 0 19.75 0.05 19-0.68 18.25-1.4 18.2-2.45L18.2-2.45Q18.05-8.1 18.05-11.35L18.05-11.35 18.05-13.85Q18.05-14.1 18.03-14.9 18-15.7 17.98-16.07 17.95-16.45 17.88-17.07 17.8-17.7 17.73-18.18 17.65-18.65 17.5-19.1L17.5-19.1Q17.1-20.5 16.4-21.05L16.4-21.05Q15.65-21.65 14.15-21.5L14.15-21.5Q12.5-21.35 11.3-20.6L11.3-20.6Q10.15-19.85 8.95-18.2L8.95-18.2Q8.7-17.9 8.4-17.65L8.4-17.65Q8.6-7.65 8.4-2.4L8.4-2.4Q8.35-1.35 7.6-0.65 6.85 0.05 5.8 0 4.75-0.05 4.05-0.8 3.35-1.55 3.4-2.6L3.4-2.6Q3.5-8.15 3.5-9.73 3.5-11.3 3.38-16.98 3.25-22.65 3.25-24.25L3.25-24.25Q3.25-25 3.98-25.75 4.7-26.5 5.7-26.5 6.7-26.5 7.5-25.88 8.3-25.25 8.25-23.55L8.25-23.55Q10.5-26.2 13.75-26.5L13.75-26.5Q17.2-26.8 19.5-24.95L19.5-24.95Q20.7-24 21.65-22.3L21.65-22.3Q24.75-26.2 29.8-26.5L29.8-26.5Q33.5-26.55 35.75-24.2L35.75-24.2Q37.5-22.15 38.1-18.95L38.1-18.95Q38.35-17.45 38.4-15.68 38.45-13.9 38.38-11.68 38.3-9.45 38.3-9.15L38.3-9.15 38.3-6.4Q38.3-6.15 38.33-5.9 38.35-5.65 38.38-5.33 38.4-5 38.45-4.25 38.5-3.5 38.6-2.6L38.6-2.6Q38.65-1.55 37.98-0.78 37.3 0 36.27 0.08 35.25 0.15 34.48-0.53 33.7-1.2 33.6-2.2L33.6-2.2ZM58.2-0.35L58.2-0.35Q51.6 1.25 47.65-3L47.65-3Q44.5-6.25 43.75-11.35L43.75-11.35Q43.2-15.35 44.7-18.95L44.7-18.95Q46.5-23.55 50.4-25.75L50.4-25.75Q51.2-26.2 52.4-26.4L52.4-26.4Q52.45-26.4 53.1-26.45L53.1-26.45Q53.35-26.5 53.5-26.55L53.5-26.55Q54.25-26.7 55-26.4L55-26.4Q55.2-26.4 55.95-26.38 56.7-26.35 56.95-26.33 57.2-26.3 57.82-26.23 58.45-26.15 58.85-26.05L58.85-26.05 59.8-25.7Q60.4-25.5 60.95-25.2 61.5-24.9 62.15-24.5L62.15-24.5Q65.4-22.3 66.65-18.32 67.9-14.35 67.3-11.9L67.3-11.9Q66.85-9.2 65.7-6.88 64.55-4.55 62.52-2.75 60.5-0.95 58.2-0.35L58.2-0.35ZM56.65-5.55L56.65-5.55Q58.8-5.85 60.32-7.78 61.85-9.7 62.32-11.85 62.8-14 61.97-16.57 61.15-19.15 59.35-20.3L59.35-20.3Q58.8-20.7 58.45-20.88 58.1-21.05 57.62-21.18 57.15-21.3 56.87-21.3 56.6-21.3 55.7-21.35 54.8-21.4 54.1-21.45L54.1-21.45Q53.95-21.45 53.75-21.5L53.75-21.5Q53.2-21.45 53.15-21.45L53.15-21.45 52.8-21.35Q50.6-20.15 49.42-17.53 48.25-14.9 48.75-12.1L48.75-12.1Q49.3-8.7 51.2-6.95L51.2-6.95Q53.25-5.05 56.65-5.55L56.65-5.55ZM81.09 0L81.09 0Q77.25 0.05 75-0.1L75-0.1Q73.55-0.2 72.64-0.4L72.64-0.4Q72-0.55 71.5-0.75L71.5-0.75Q70.39-1.3 69.94-2.35L69.94-2.35Q69.64-3.2 69.94-4.1L69.94-4.1Q70.05-4.4 70.19-4.6L70.19-4.6Q70.3-4.8 70.5-5.05L70.5-5.05 71.05-5.75 72.59-7.35 74.89-9.65Q79-13.9 81.75-17L81.75-17Q83.89-19.7 84.8-21.5L84.8-21.5Q82.89-21.55 81.25-21.55L81.25-21.55Q74.64-21.4 72.8-21.6L72.8-21.6Q71.8-21.75 71.14-22.55 70.5-23.35 70.62-24.38 70.75-25.4 71.55-26.05 72.34-26.7 73.39-26.6L73.39-26.6Q75-26.4 79.12-26.48 83.25-26.55 85.59-26.5L85.59-26.5 87.75-26.5Q87.84-26.45 87.94-26.45L87.94-26.45 88.25-26.35Q88.8-26.2 89.19-25.8L89.19-25.8Q90.55-24.5 90.3-22.35L90.3-22.35Q90.14-21.1 89.39-19.5L89.39-19.5Q88.3-17.2 85.69-14.4L85.69-14.4Q82.8-10.6 78.5-6.15L78.5-6.15 77.34-5Q78.8-4.95 81.05-5L81.05-5Q83.64-5.05 87.14-5.2L87.14-5.2Q90.75-5.35 91.14-5.35L91.14-5.35Q92.19-5.35 92.92-4.63 93.64-3.9 93.64-2.85 93.64-1.8 92.92-1.07 92.19-0.35 91.14-0.35L91.14-0.35Q90.75-0.35 87.17-0.2 83.59-0.05 81.09 0L81.09 0ZM109.79-0.8L109.79-0.8Q107.99-0.1 105.72 0 103.44 0.1 101.49-0.53 99.54-1.15 98.04-2.45L98.04-2.45Q95.44-4.6 94.69-7.8 93.94-11 94.64-13.55 95.34-16.1 96.77-18.53 98.19-20.95 99.87-22.63 101.54-24.3 103.74-25.45 105.94-26.6 108.34-26.58 110.74-26.55 113.39-25.25L113.39-25.25Q113.79-25.05 114.27-24.65 114.74-24.25 115.09-23.95L115.09-23.95 115.74-23.3Q116.04-23 116.04-22.95L116.04-22.95Q116.84-22.25 116.89-21.15L116.89-21.15Q117.54-18.15 117.74-14.85 117.94-11.55 117.87-8.65 117.79-5.75 117.94-2.5L117.94-2.5Q117.99-1.5 117.29-0.75 116.59 0 115.54 0.05 114.49 0.1 113.74-0.6 112.99-1.3 112.94-2.3L112.94-2.3 112.94-3.05Q111.44-1.5 109.79-0.8L109.79-0.8ZM107.54-5.3L107.54-5.3Q108.29-5.5 108.74-5.7 109.19-5.9 109.87-6.3 110.54-6.7 111.29-7.3 112.04-7.9 112.64-8.8L112.64-8.8Q112.74-8.9 112.89-9L112.89-9Q112.89-15.75 112.04-19.85L112.04-19.85Q111.89-20.05 111.72-20.23 111.54-20.4 111.47-20.5 111.39-20.6 111.27-20.68 111.14-20.75 110.99-20.85L110.99-20.85Q108.59-22.15 105.94-20.93 103.29-19.7 101.29-16.35L101.29-16.35Q99.29-12.95 99.32-10.43 99.34-7.9 101.24-6.25L101.24-6.25Q102.39-5.3 104.09-5.05 105.79-4.8 107.54-5.3L107.54-5.3Z" opacity="1" transform="matrix(1,0,0,1,0,0)" fill="#000000" class="wordmark-text-0" data-fill-palette-color="primary" id="text-0"></path></svg></g></svg></g><g transform="matrix(1,0,0,1,0,113.80573150884314)"><svg viewBox="0 0 395.52 56.89936708783689" height="56.89936708783689" width="395.52"><g transform="matrix(1,0,0,1,0,0)"><svg width="395.52" viewBox="1.95 -25.63 257.28000000000003 37.01" height="56.89936708783689" data-palette-color="#7a26c1"><path d="M1.95-25.22L6.45-25.22 8.96-22.58Q9.23-23.19 9.66-23.74 10.08-24.29 10.66-24.71 11.23-25.12 11.95-25.37 12.67-25.61 13.53-25.61L13.53-25.61Q14.23-25.61 14.89-25.5 15.55-25.39 16.33-25.12L16.33-25.12Q16.36-25.07 16.39-24.73 16.43-24.39 16.43-23.88L16.43-23.88Q16.43-23.49 16.38-22.96 16.33-22.44 16.22-21.89 16.11-21.34 15.91-20.8 15.7-20.26 15.38-19.87L15.38-19.87 14.92-19.75Q14.43-20 13.83-20.17 13.23-20.34 12.6-20.34L12.6-20.34Q11.62-20.34 10.96-20.2 10.3-20.07 9.89-19.92L9.89-19.92Q9.4-19.75 9.11-19.53L9.11-19.53 9.11 0 3.88 0 3.88-20.48 1.95-22.46 1.95-25.22ZM55.91-12.23L55.91-12.23Q55.91-15.75 56.76-18.29 57.62-20.83 59.16-22.46 60.69-24.1 62.83-24.87 64.97-25.63 67.53-25.63L67.53-25.63Q69.9-25.63 71.77-24.84 73.63-24.05 74.93-22.61 76.22-21.17 76.9-19.17 77.59-17.16 77.59-14.75L77.59-14.75Q77.59-13.92 77.51-13.21 77.44-12.5 77.34-11.99L77.34-11.99Q77.25-11.38 77.12-10.89L77.12-10.89 61.11-10.96Q61.13-8.79 61.57-7.36 62.01-5.93 62.88-5.1 63.75-4.27 65.06-3.94 66.38-3.61 68.19-3.61L68.19-3.61Q69.73-3.61 70.95-3.81 72.17-4 73.02-4.27L73.02-4.27Q74-4.57 74.78-4.96L74.78-4.96Q75.15-4.1 75.35-3.37 75.56-2.64 75.66-2.1L75.66-2.1Q75.76-1.46 75.81-0.98L75.81-0.98Q75-0.56 73.85-0.24L73.85-0.24Q72.88 0.02 71.46 0.26 70.04 0.49 68.19 0.49L68.19 0.49Q65.26 0.49 62.98-0.17 60.69-0.83 59.12-2.33 57.54-3.83 56.73-6.26 55.91-8.69 55.91-12.23ZM61.18-14.53L72.36-14.53 72.36-15.36Q72.36-16.89 71.99-18.08 71.61-19.26 70.95-20.07 70.29-20.87 69.39-21.29 68.48-21.7 67.43-21.7L67.43-21.7Q65.89-21.7 64.72-21.3 63.55-20.9 62.76-20.03 61.96-19.17 61.57-17.8 61.18-16.43 61.18-14.53L61.18-14.53ZM124.49 0L116.99-24.95 122.49-24.95 127.25-6.71 128.3-1.83 129.37-6.71 134.28-24.95 139.94-24.95 128.83 11.38 123.54 11.38 127.61 0 124.49 0ZM179.03-12.23L179.03-12.23Q179.03-15.75 179.88-18.29 180.74-20.83 182.28-22.46 183.81-24.1 185.95-24.87 188.09-25.63 190.65-25.63L190.65-25.63Q193.02-25.63 194.89-24.84 196.75-24.05 198.05-22.61 199.34-21.17 200.03-19.17 200.71-17.16 200.71-14.75L200.71-14.75Q200.71-13.92 200.64-13.21 200.56-12.5 200.46-11.99L200.46-11.99Q200.37-11.38 200.25-10.89L200.25-10.89 184.23-10.96Q184.25-8.79 184.69-7.36 185.13-5.93 186-5.1 186.87-4.27 188.18-3.94 189.5-3.61 191.31-3.61L191.31-3.61Q192.85-3.61 194.07-3.81 195.29-4 196.14-4.27L196.14-4.27Q197.12-4.57 197.9-4.96L197.9-4.96Q198.27-4.1 198.48-3.37 198.68-2.64 198.78-2.1L198.78-2.1Q198.88-1.46 198.93-0.98L198.93-0.98Q198.12-0.56 196.97-0.24L196.97-0.24Q196 0.02 194.58 0.26 193.16 0.49 191.31 0.49L191.31 0.49Q188.38 0.49 186.1-0.17 183.81-0.83 182.24-2.33 180.66-3.83 179.85-6.26 179.03-8.69 179.03-12.23ZM184.3-14.53L195.48-14.53 195.48-15.36Q195.48-16.89 195.11-18.08 194.73-19.26 194.07-20.07 193.41-20.87 192.51-21.29 191.6-21.7 190.55-21.7L190.55-21.7Q189.01-21.7 187.84-21.3 186.67-20.9 185.88-20.03 185.08-19.17 184.69-17.8 184.3-16.43 184.3-14.53L184.3-14.53ZM241.6-1.12L241.6-1.12Q241.6-1.68 241.7-2.34L241.7-2.34Q241.77-2.91 241.93-3.63 242.09-4.35 242.41-5.13L242.41-5.13Q243.48-4.71 244.65-4.39L244.65-4.39Q245.66-4.13 246.83-3.89 248-3.66 249.15-3.66L249.15-3.66Q250.17-3.66 251.05-3.74 251.93-3.81 252.58-4.14 253.22-4.47 253.59-5.14 253.96-5.81 253.96-7.01L253.96-7.01Q253.96-8.45 253.07-9.28 252.17-10.11 249.98-10.52L249.98-10.52Q247.71-10.96 246.16-11.69 244.61-12.43 243.64-13.39 242.68-14.36 242.25-15.55 241.82-16.75 241.82-18.12L241.82-18.12Q241.82-20.17 242.48-21.61 243.14-23.05 244.4-23.94 245.66-24.83 247.52-25.23 249.39-25.63 251.81-25.63L251.81-25.63Q253.49-25.63 254.8-25.4 256.1-25.17 256.98-24.9L256.98-24.9Q258.01-24.58 258.77-24.17L258.77-24.17Q258.69-23.63 258.5-23L258.5-23Q258.33-22.46 258.05-21.78 257.76-21.09 257.3-20.39L257.3-20.39Q256.64-20.78 255.79-21.07L255.79-21.07Q255.05-21.34 254.03-21.55 253-21.75 251.69-21.75L251.69-21.75Q250.66-21.75 249.79-21.66 248.93-21.56 248.3-21.22 247.68-20.87 247.34-20.18 247-19.48 247-18.29L247-18.29Q247-17.7 247.16-17.22 247.32-16.75 247.79-16.36 248.27-15.97 249.13-15.64 250-15.31 251.44-14.99L251.44-14.99Q253.69-14.5 255.19-13.87 256.69-13.23 257.58-12.33 258.47-11.43 258.85-10.22 259.23-9.01 259.23-7.35L259.23-7.35Q259.23-5.57 258.67-4.13 258.11-2.69 256.91-1.66 255.71-0.63 253.83-0.07 251.95 0.49 249.29 0.49L249.29 0.49Q247.58 0.49 246.18 0.24 244.78 0 243.75-0.32L243.75-0.32Q242.55-0.66 241.6-1.12Z" opacity="1" transform="matrix(1,0,0,1,0,0)" fill="#000000" class="slogan-text-1" data-fill-palette-color="secondary" id="text-1"></path></svg></g></svg></g></svg></g></svg></g><g transform="matrix(1,0,0,1,79.80277686969407,0)"><svg viewBox="0 0 235.91444626061184 235.91444626061184" height="235.91444626061184" width="235.91444626061184"><g><svg></svg></g><g id="icon-0"><svg viewBox="0 0 235.91444626061184 235.91444626061184" height="235.91444626061184" width="235.91444626061184"><g><path transform="scale(2.35914,2.35914)" d="M30 100c-16.569 0-30-13.431-30-30v-40c0-16.569 13.431-30 30-30h40c16.569 0 30 13.431 30 30v40c0 16.569-13.431 30-30 30z" fill="#000000" fill-rule="nonzero" stroke="none" stroke-width="1" stroke-linecap="butt" stroke-linejoin="miter" stroke-miterlimit="10" stroke-dasharray="" stroke-dashoffset="0" font-family="none" font-weight="none" font-size="none" text-anchor="none" style="mix-blend-mode: normal" data-fill-palette-color="accent"></path></g><g transform="matrix(1,0,0,1,47.182889252122365,47.182889252122365)"><svg viewBox="0 0 141.5486677563671 141.5486677563671" height="141.5486677563671" width="141.5486677563671"><g><svg version="1.1" xmlns:dc="http://purl.org/dc/elements/1.1/" xmlns:inkscape="http://www.inkscape.org/namespaces/inkscape" xmlns:rdf="http://www.w3.org/1999/02/22-rdf-syntax-ns#" xmlns:cc="http://creativecommons.org/ns#" xmlns:svg="http://www.w3.org/2000/svg" xmlns:sodipodi="http://sodipodi.sourceforge.net/DTD/sodipodi-0.dtd" xmlns="http://www.w3.org/2000/svg" xmlns:xlink="http://www.w3.org/1999/xlink" x="0" y="0" viewBox="0 0 100 100" enable-background="new 0 0 100 100" xml:space="preserve" height="141.5486677563671" width="141.5486677563671" class="icon-cg-0" data-fill-palette-color="quaternary" id="cg-0"><path d="M50 0C22.386 0 0 22.386 0 50s22.386 50 50 50 50-22.386 50-50S77.614 0 50 0zM50 14.156c19.799 0 35.844 16.044 35.844 35.844 0 19.799-16.045 35.844-35.844 35.844-19.799 0-35.844-16.045-35.844-35.844C14.156 30.201 30.201 14.156 50 14.156zM50 20.125c-16.505 0-29.875 13.37-29.875 29.875S33.495 79.875 50 79.875 79.875 66.505 79.875 50 66.505 20.125 50 20.125zM50 29.75c11.178 0 20.25 9.072 20.25 20.25S61.178 70.25 50 70.25 29.75 61.178 29.75 50 38.822 29.75 50 29.75z" fill="#ffffff" data-fill-palette-color="quaternary"></path></svg></g></svg></g></svg></g></svg></g><g></g></svg></g><defs></defs></svg><rect width="228.2511479281569" height="247.2" fill="none" stroke="none" visibility="hidden"></rect></g></svg></g></svg>