<svg xmlns="http://www.w3.org/2000/svg" xmlns:xlink="http://www.w3.org/1999/xlink" width="500" zoomAndPan="magnify" viewBox="0 0 375 374.999991" height="500" preserveAspectRatio="xMidYMid meet" version="1.0"><defs><g/><clipPath id="fe1ac8a02e"><path d="M 148 73.921875 L 227 73.921875 L 227 155.671875 L 148 155.671875 Z M 148 73.921875 " clip-rule="nonzero"/></clipPath><clipPath id="1de3abb173"><path d="M 136.035156 108 L 145 108 L 145 137 L 136.035156 137 Z M 136.035156 108 " clip-rule="nonzero"/></clipPath><clipPath id="5eab293dfe"><path d="M 229 108 L 238.785156 108 L 238.785156 137 L 229 137 Z M 229 108 " clip-rule="nonzero"/></clipPath></defs><g fill="#000000" fill-opacity="1"><g transform="translate(104.065697, 219.452013)"><g><path d="M 79.1875 -47.453125 L 63.796875 0 L 49.421875 0 L 40.34375 -28.875 L 30.84375 0 L 16.46875 0 L 1.078125 -47.453125 L 14.921875 -47.453125 L 24.46875 -17.15625 L 34.515625 -47.453125 L 46.84375 -47.453125 L 56.40625 -16.875 L 66.375 -47.453125 Z M 79.1875 -47.453125 "/></g></g></g><g fill="#000000" fill-opacity="1"><g transform="translate(178.770768, 219.452013)"><g><path d="M 42.84375 -10.375 L 42.84375 0 L 4.75 0 L 4.75 -47.453125 L 41.96875 -47.453125 L 41.96875 -37.078125 L 18.03125 -37.078125 L 18.03125 -29.078125 L 39.125 -29.078125 L 39.125 -19.046875 L 18.03125 -19.046875 L 18.03125 -10.375 Z M 42.84375 -10.375 "/></g></g></g><g fill="#000000" fill-opacity="1"><g transform="translate(218.766762, 219.452013)"><g><path d="M 41.21875 -24.75 C 43.925781 -23.800781 46.050781 -22.316406 47.59375 -20.296875 C 49.132812 -18.285156 49.90625 -15.859375 49.90625 -13.015625 C 49.90625 -8.859375 48.226562 -5.648438 44.875 -3.390625 C 41.53125 -1.128906 36.695312 0 30.375 0 L 4.75 0 L 4.75 -47.453125 L 29.015625 -47.453125 C 35.078125 -47.453125 39.6875 -46.332031 42.84375 -44.09375 C 46.007812 -41.863281 47.59375 -38.847656 47.59375 -35.046875 C 47.59375 -32.785156 47.035156 -30.765625 45.921875 -28.984375 C 44.816406 -27.203125 43.25 -25.789062 41.21875 -24.75 Z M 18.03125 -37.765625 L 18.03125 -28.609375 L 27.25 -28.609375 C 31.769531 -28.609375 34.03125 -30.144531 34.03125 -33.21875 C 34.03125 -36.25 31.769531 -37.765625 27.25 -37.765625 Z M 29.28125 -9.6875 C 33.988281 -9.6875 36.34375 -11.296875 36.34375 -14.515625 C 36.34375 -17.722656 33.988281 -19.328125 29.28125 -19.328125 L 18.03125 -19.328125 L 18.03125 -9.6875 Z M 29.28125 -9.6875 "/></g></g></g><g clip-path="url(#fe1ac8a02e)"><path fill="#000000" d="M 209.109375 155.667969 L 165.652344 155.667969 C 156.078125 155.667969 148.316406 147.910156 148.316406 138.40625 L 148.316406 110.257812 C 148.316406 100.691406 156.078125 92.933594 165.652344 92.933594 L 185.515625 92.933594 L 185.574219 86.316406 C 182.984375 85.535156 181.058594 83.128906 181.058594 80.242188 C 181.058594 76.753906 183.949219 73.925781 187.441406 73.925781 C 190.929688 73.925781 193.820312 76.753906 193.820312 80.242188 C 193.820312 83.128906 191.835938 85.59375 189.1875 86.378906 L 189.125 92.933594 L 209.109375 92.933594 C 218.621094 92.933594 226.386719 100.691406 226.386719 110.257812 L 226.386719 138.46875 C 226.386719 147.96875 218.621094 155.667969 209.109375 155.667969 Z M 171.066406 128.363281 C 165.953125 128.363281 161.917969 124.332031 161.917969 119.277344 C 161.917969 114.167969 165.953125 110.136719 171.066406 110.136719 C 176.183594 110.136719 180.15625 114.167969 180.15625 119.277344 C 180.15625 124.332031 176.183594 128.363281 171.066406 128.363281 Z M 171.066406 113.746094 C 167.9375 113.746094 165.53125 116.152344 165.53125 119.277344 C 165.53125 122.347656 167.9375 124.753906 171.066406 124.753906 C 174.136719 124.753906 176.605469 122.347656 176.605469 119.277344 C 176.605469 116.152344 174.136719 113.746094 171.066406 113.746094 Z M 203.753906 128 C 198.636719 128 194.542969 123.910156 194.542969 118.859375 C 194.542969 113.804688 198.636719 109.714844 203.753906 109.714844 C 208.75 109.714844 212.84375 113.804688 212.84375 118.859375 C 212.84375 123.910156 208.75 128 203.753906 128 Z M 203.753906 113.324219 C 200.621094 113.324219 198.15625 115.851562 198.15625 118.859375 C 198.15625 121.925781 200.621094 124.453125 203.753906 124.453125 C 206.824219 124.453125 209.230469 121.925781 209.230469 118.859375 C 209.230469 115.730469 206.761719 113.324219 203.753906 113.324219 Z M 186.71875 138.949219 C 183.285156 138.949219 180.277344 137.324219 178.59375 135.878906 C 177.808594 135.21875 177.75 134.015625 178.410156 133.355469 C 179.074219 132.632812 180.15625 132.511719 180.941406 133.234375 C 181.480469 133.714844 186.71875 137.867188 191.714844 133.292969 C 192.4375 132.632812 193.519531 132.632812 194.300781 133.355469 C 194.964844 134.136719 194.964844 135.21875 194.242188 135.941406 C 191.714844 138.105469 189.125 138.949219 186.71875 138.949219 Z M 186.71875 138.949219 " fill-opacity="1" fill-rule="evenodd"/></g><g clip-path="url(#1de3abb173)"><path fill="#000000" d="M 144.703125 136.363281 L 143.980469 136.363281 C 139.648438 136.363281 136.035156 132.8125 136.035156 128.421875 L 136.035156 116.152344 C 136.035156 111.761719 139.648438 108.152344 143.980469 108.152344 L 144.824219 108.152344 C 144.761719 108.8125 144.703125 109.535156 144.703125 110.257812 Z M 144.703125 136.363281 " fill-opacity="1" fill-rule="evenodd"/></g><g clip-path="url(#5eab293dfe)"><path fill="#000000" d="M 230.71875 136.363281 L 229.996094 136.363281 L 229.996094 110.257812 C 229.996094 109.476562 229.9375 108.753906 229.875 108.089844 L 230.71875 108.089844 C 235.171875 108.089844 238.785156 111.640625 238.785156 116.089844 L 238.785156 128.421875 C 238.785156 132.875 235.171875 136.363281 230.71875 136.363281 Z M 230.71875 136.363281 " fill-opacity="1" fill-rule="evenodd"/></g><g fill="#0a2635" fill-opacity="1"><g transform="translate(161.37451, 235.611055)"><g><path d="M 6.671875 0 L 6.65625 -3.890625 L 4.75 -0.6875 L 4.078125 -0.6875 L 2.171875 -3.8125 L 2.171875 0 L 0.765625 0 L 0.765625 -6.484375 L 2.015625 -6.484375 L 4.4375 -2.453125 L 6.828125 -6.484375 L 8.0625 -6.484375 L 8.078125 0 Z M 6.671875 0 "/></g></g></g><g fill="#0a2635" fill-opacity="1"><g transform="translate(177.643414, 235.611055)"><g><path d="M 3.90625 0.109375 C 3.238281 0.109375 2.632812 -0.0351562 2.09375 -0.328125 C 1.550781 -0.617188 1.125 -1.015625 0.8125 -1.515625 C 0.507812 -2.023438 0.359375 -2.601562 0.359375 -3.25 C 0.359375 -3.882812 0.507812 -4.453125 0.8125 -4.953125 C 1.125 -5.460938 1.550781 -5.863281 2.09375 -6.15625 C 2.632812 -6.445312 3.238281 -6.59375 3.90625 -6.59375 C 4.582031 -6.59375 5.1875 -6.445312 5.71875 -6.15625 C 6.257812 -5.863281 6.679688 -5.460938 6.984375 -4.953125 C 7.296875 -4.453125 7.453125 -3.882812 7.453125 -3.25 C 7.453125 -2.601562 7.296875 -2.023438 6.984375 -1.515625 C 6.679688 -1.015625 6.257812 -0.617188 5.71875 -0.328125 C 5.1875 -0.0351562 4.582031 0.109375 3.90625 0.109375 Z M 3.90625 -1.171875 C 4.289062 -1.171875 4.632812 -1.257812 4.9375 -1.4375 C 5.25 -1.613281 5.492188 -1.859375 5.671875 -2.171875 C 5.847656 -2.484375 5.9375 -2.84375 5.9375 -3.25 C 5.9375 -3.644531 5.847656 -4 5.671875 -4.3125 C 5.492188 -4.632812 5.25 -4.878906 4.9375 -5.046875 C 4.632812 -5.222656 4.289062 -5.3125 3.90625 -5.3125 C 3.519531 -5.3125 3.171875 -5.222656 2.859375 -5.046875 C 2.554688 -4.878906 2.316406 -4.632812 2.140625 -4.3125 C 1.960938 -4 1.875 -3.644531 1.875 -3.25 C 1.875 -2.84375 1.960938 -2.484375 2.140625 -2.171875 C 2.316406 -1.859375 2.554688 -1.613281 2.859375 -1.4375 C 3.171875 -1.257812 3.519531 -1.171875 3.90625 -1.171875 Z M 3.90625 -1.171875 "/></g></g></g><g fill="#0a2635" fill-opacity="1"><g transform="translate(192.883594, 235.611055)"><g><path d="M 6.015625 -1.21875 L 6.015625 0 L 0.359375 0 L 0.359375 -0.96875 L 3.90625 -5.265625 L 0.421875 -5.265625 L 0.421875 -6.484375 L 5.890625 -6.484375 L 5.890625 -5.515625 L 2.328125 -1.21875 Z M 6.015625 -1.21875 "/></g></g></g><g fill="#0a2635" fill-opacity="1"><g transform="translate(206.520442, 235.611055)"><g><path d="M 5.046875 -1.390625 L 2.03125 -1.390625 L 1.453125 0 L -0.078125 0 L 2.8125 -6.484375 L 4.296875 -6.484375 L 7.1875 0 L 5.609375 0 Z M 4.5625 -2.53125 L 3.546875 -5.015625 L 2.515625 -2.53125 Z M 4.5625 -2.53125 "/></g></g></g></svg>